<?xml version="1.0" standalone="no"?>
<!DOCTYPE svg PUBLIC "-//W3C//DTD SVG 20010904//EN"
 "http://www.w3.org/TR/2001/REC-SVG-20010904/DTD/svg10.dtd">
<svg version="1.0" xmlns="http://www.w3.org/2000/svg"
 width="279.000000pt" height="282.000000pt" viewBox="0 0 279.000000 282.000000"
 preserveAspectRatio="xMidYMid meet">

<g transform="translate(0.000000,282.000000) scale(0.100000,-0.100000)"
fill="#000000" stroke="none">
<path d="M366 2288 c-13 -19 -16 -57 -16 -218 0 -213 6 -240 55 -240 47 0 55
29 55 212 l0 168 610 0 610 0 0 -620 0 -620 -223 0 c-204 0 -225 -2 -240 -18
-22 -24 -21 -45 1 -65 17 -15 56 -17 351 -17 210 0 339 4 352 10 22 12 26 59
7 78 -7 7 -39 12 -75 12 l-63 0 0 500 0 500 208 0 207 -1 170 -140 170 -141 0
-64 c0 -35 -2 -197 -3 -359 l-2 -295 -38 0 c-45 0 -62 -14 -62 -52 0 -38 27
-49 112 -46 66 3 74 5 85 28 10 19 13 123 13 425 0 220 -4 405 -8 412 -4 6
-95 83 -201 172 l-195 161 -227 0 -227 0 -4 103 c-2 69 -8 110 -17 120 -12 16
-74 17 -702 17 l-688 0 -15 -22z"/>
<path d="M1906 1814 c-14 -13 -16 -50 -16 -248 0 -213 2 -234 18 -249 16 -15
49 -17 250 -17 285 0 262 -17 262 193 0 82 -4 156 -10 166 -5 10 -48 52 -95
94 l-86 77 -154 0 c-126 0 -156 -3 -169 -16z m342 -140 l62 -56 0 -109 0 -110
-157 3 -158 3 -3 163 -2 162 97 0 98 0 63 -56z"/>
<path d="M340 1783 c-19 -7 -40 -33 -40 -50 0 -7 9 -22 20 -33 19 -19 33 -20
350 -20 317 0 331 1 350 20 24 24 25 39 6 66 -14 18 -30 19 -343 21 -180 1
-335 -1 -343 -4z"/>
<path d="M215 1534 c-23 -23 -15 -66 15 -81 19 -9 108 -13 347 -13 352 0 358
1 351 59 -6 48 -26 51 -375 51 -284 0 -323 -2 -338 -16z"/>
<path d="M105 1290 c-23 -26 -13 -68 21 -80 38 -15 637 -13 669 2 24 11 30 24
25 58 -4 38 -24 40 -365 40 -317 0 -333 -1 -350 -20z"/>
<path d="M366 1138 c-12 -17 -16 -48 -16 -123 0 -142 2 -145 134 -145 110 0
126 6 126 50 0 40 -18 50 -87 50 l-63 0 0 73 c0 82 -16 117 -55 117 -13 0 -31
-10 -39 -22z"/>
<path d="M847 1026 c-101 -28 -170 -119 -170 -224 0 -130 102 -232 233 -232
71 0 126 26 173 80 149 174 -16 436 -236 376z m134 -119 c39 -26 66 -89 55
-131 -11 -43 -66 -96 -107 -102 -74 -12 -149 51 -149 124 0 104 115 167 201
109z"/>
<path d="M2140 1031 c-113 -23 -190 -116 -190 -231 0 -71 26 -126 80 -173 154
-131 381 -24 381 179 0 143 -132 253 -271 225z m100 -114 c36 -18 70 -74 70
-116 0 -77 -73 -140 -147 -126 -48 9 -102 61 -109 105 -16 102 94 183 186 137z"/>
</g>
</svg>
