<?xml version="1.0" standalone="no"?>
<!DOCTYPE svg PUBLIC "-//W3C//DTD SVG 20010904//EN"
 "http://www.w3.org/TR/2001/REC-SVG-20010904/DTD/svg10.dtd">
<svg version="1.0" xmlns="http://www.w3.org/2000/svg"
 width="269.000000pt" height="269.000000pt" viewBox="0 0 269.000000 269.000000"
 preserveAspectRatio="xMidYMid meet">

<g transform="translate(0.000000,269.000000) scale(0.100000,-0.100000)"
fill="#000000" stroke="none">
<path d="M1095 2481 c-88 -41 -115 -98 -115 -249 0 -71 4 -112 12 -120 7 -7
34 -12 60 -12 l48 0 0 -79 c0 -92 22 -79 -182 -112 l-138 -22 0 -33 c0 -18 4
-35 9 -39 6 -3 78 6 160 20 83 14 163 22 177 19 15 -4 59 -26 97 -50 80 -49
130 -56 191 -27 43 20 58 15 150 -54 61 -46 65 -52 96 -138 18 -49 34 -92 36
-93 7 -9 75 21 71 32 -2 6 -19 53 -38 105 l-34 94 -81 61 -82 62 22 29 c18 26
21 46 24 164 3 120 6 137 23 149 16 11 19 25 19 83 0 109 -35 173 -115 210
-59 27 -351 27 -410 0z m245 -136 c0 -136 -33 -165 -185 -165 l-97 0 4 89 c5
133 24 149 181 150 l97 1 0 -75z m140 60 c36 -19 60 -62 60 -110 l0 -35 -60 0
-60 0 0 80 c0 88 5 94 60 65z m18 -352 l-3 -128 -65 -42 c-35 -24 -76 -43 -90
-43 -14 0 -55 19 -90 43 l-65 42 -3 88 -3 87 43 0 c49 0 114 27 142 59 15 17
30 21 78 21 l59 0 -3 -127z"/>
<path d="M1380 2030 c0 -24 -41 -50 -80 -50 l-40 0 0 -40 0 -40 45 0 c53 0 95
19 124 56 29 37 27 48 -14 67 -19 9 -35 12 -35 7z"/>
<path d="M2420 2478 c-52 -11 -101 -25 -107 -30 -8 -6 -13 -33 -13 -62 l0 -51
-45 0 c-37 0 -51 -6 -78 -33 -27 -28 -32 -39 -32 -82 0 -43 5 -54 33 -82 28
-28 39 -33 82 -33 43 0 54 5 82 33 33 32 33 33 36 141 l4 108 80 17 c45 9 82
17 84 19 6 6 -12 71 -21 73 -6 1 -53 -7 -105 -18z m-130 -233 c26 -32 -13 -81
-47 -59 -35 22 -23 74 17 74 10 0 23 -7 30 -15z"/>
<path d="M2100 1958 c-52 -11 -101 -25 -107 -30 -8 -6 -13 -33 -13 -62 l0 -51
-45 0 c-37 0 -51 -6 -78 -33 -27 -28 -32 -39 -32 -82 0 -43 5 -54 33 -82 28
-28 39 -33 82 -33 66 0 110 40 117 109 6 46 6 46 44 46 39 0 39 0 39 40 l0 40
-40 0 c-35 0 -40 3 -40 24 0 21 7 25 82 40 44 9 82 17 84 19 6 6 -12 71 -21
73 -6 1 -53 -7 -105 -18z m-130 -233 c26 -32 -13 -81 -47 -59 -35 22 -23 74
17 74 10 0 23 -7 30 -15z"/>
<path d="M485 1879 c-58 -31 -84 -58 -97 -101 -6 -22 -17 -38 -26 -38 -75 0
-187 -89 -210 -166 -17 -57 -17 -571 0 -628 16 -55 99 -138 154 -154 23 -7 96
-12 163 -12 114 0 125 2 159 25 42 29 46 25 57 -52 l7 -53 -224 0 c-205 0
-226 -2 -256 -20 -62 -38 -72 -69 -72 -220 0 -93 4 -140 12 -148 9 -9 95 -12
323 -12 l312 0 -5 -100 -5 -100 40 0 40 0 7 148 c4 81 10 162 13 180 5 32 5
32 -35 32 -39 0 -40 -1 -47 -40 l-7 -40 -284 0 -284 0 0 100 c0 149 -21 140
316 140 l276 0 -7 -40 -7 -40 40 0 c36 0 40 3 46 31 3 17 6 58 6 91 0 58 12
95 34 110 14 10 138 10 152 0 26 -17 32 -63 50 -360 l18 -312 39 0 40 0 -5
100 -5 100 127 0 127 0 -5 -100 -5 -100 40 0 39 0 18 313 c10 171 23 321 29
332 15 31 27 35 97 35 70 0 82 -4 97 -35 6 -11 19 -161 29 -332 l18 -313 39 0
40 0 -5 100 -5 100 312 0 c228 0 314 3 323 12 8 8 12 55 12 148 0 151 -10 182
-72 220 -31 19 -51 20 -313 20 l-281 0 -12 46 c-12 43 -51 95 -79 105 -7 2
-14 19 -15 37 -3 33 -1 34 62 58 200 75 200 76 215 104 8 16 15 43 15 60 l0
30 80 0 c73 0 80 -2 80 -20 0 -17 7 -20 40 -20 33 0 40 3 40 20 0 15 7 20 29
20 22 0 31 -6 41 -29 l12 -30 34 17 c21 10 33 22 32 32 -2 8 9 23 24 32 49 31
68 74 68 156 0 43 -6 84 -14 100 -18 34 -54 68 -83 77 -14 4 -23 14 -23 26 0
16 -7 19 -40 19 -36 0 -40 -2 -40 -25 0 -35 -48 -55 -67 -29 -7 10 -13 21 -13
26 0 4 -16 0 -36 -9 -28 -14 -34 -21 -30 -39 5 -18 0 -24 -26 -33 -48 -17 -98
-14 -116 8 -20 22 -146 65 -167 57 -8 -3 -23 -21 -32 -41 l-17 -35 -228 0
-228 0 0 25 c0 61 -54 135 -118 162 -94 39 -207 36 -294 -8 -48 -25 -135 -25
-165 -1 -12 9 -42 67 -68 128 -57 137 -83 166 -157 171 -40 2 -63 -2 -93 -18z
m129 -81 c8 -13 49 -106 91 -208 43 -102 82 -190 88 -196 7 -7 35 -19 63 -28
48 -16 52 -20 58 -54 3 -20 8 -51 12 -68 l6 -31 -96 -13 c-53 -7 -99 -10 -102
-7 -3 3 -12 31 -21 63 -9 37 -55 128 -123 244 -59 102 -113 196 -119 208 -19
36 -5 69 37 91 50 27 88 27 106 -1z m-142 -254 l66 -116 -33 -44 c-73 -96 -52
-226 48 -292 56 -37 153 -39 211 -3 24 15 70 29 120 37 66 11 85 18 104 39 26
31 27 50 7 147 -18 83 -31 100 -99 125 -32 12 -52 26 -57 41 -8 21 -6 22 50
22 42 0 75 7 117 27 95 43 212 33 265 -23 24 -25 24 -27 24 -244 0 -217 0
-219 -24 -244 -53 -56 -170 -66 -265 -23 -45 21 -74 27 -128 27 l-69 0 -120
-81 -121 -81 -123 4 c-134 3 -153 10 -199 72 -20 26 -21 43 -24 299 -2 150 0
286 3 304 12 64 83 122 150 122 28 1 35 -8 97 -115z m1972 -146 c24 -34 21
-133 -4 -158 -18 -18 -33 -20 -140 -20 l-121 0 3 67 3 66 95 33 c115 39 144
41 164 12z m-489 2 l26 -10 -3 -152 -3 -152 -125 -48 c-69 -26 -133 -47 -143
-48 -10 0 -44 13 -75 29 -54 27 -59 33 -69 75 l-10 46 141 0 c97 0 146 4 154
12 7 7 12 39 12 75 0 51 6 76 30 123 17 33 32 60 34 60 3 0 16 -4 31 -10z
m-1320 -169 c8 -33 18 -68 22 -77 10 -27 -46 -9 -82 27 -25 25 -30 37 -30 78
0 34 6 55 19 70 l19 21 18 -30 c10 -16 25 -56 34 -89z m1151 93 c-3 -9 -6 -36
-6 -60 l0 -44 -200 0 -200 0 0 60 0 60 206 0 c184 0 205 -2 200 -16z m314 -44
c0 -53 -2 -60 -20 -60 -18 0 -20 7 -20 60 0 53 2 60 20 60 18 0 20 -7 20 -60z
m-614 -212 l19 -73 85 -43 c63 -32 87 -50 92 -68 6 -22 4 -24 -33 -24 -82 0
-140 -47 -155 -127 l-6 -33 -148 0 -148 0 -6 33 c-9 50 -43 97 -81 113 -44 18
-166 18 -210 0 -38 -16 -72 -63 -81 -113 -4 -22 -12 -33 -24 -33 -14 0 -20 17
-32 91 l-15 90 43 30 c52 35 124 40 182 10 116 -59 278 -43 356 35 38 38 56
83 56 139 l0 45 44 0 43 0 19 -72z m-2 -525 c-3 -43 -7 -97 -10 -120 l-5 -43
-129 0 -129 0 -5 43 c-3 23 -7 77 -10 120 l-4 77 148 0 148 0 -4 -77z m956 57
c17 -17 20 -33 20 -120 l0 -100 -284 0 -285 0 -5 43 c-3 23 -7 77 -10 120 l-4
77 274 0 c261 0 275 -1 294 -20z"/>
</g>
</svg>
