<?xml version="1.0" standalone="no"?>
<!DOCTYPE svg PUBLIC "-//W3C//DTD SVG 20010904//EN"
 "http://www.w3.org/TR/2001/REC-SVG-20010904/DTD/svg10.dtd">
<svg version="1.0" xmlns="http://www.w3.org/2000/svg"
 width="254.000000pt" height="279.000000pt" viewBox="0 0 254.000000 279.000000"
 preserveAspectRatio="xMidYMid meet">

<g transform="translate(0.000000,279.000000) scale(0.100000,-0.100000)"
fill="#000000" stroke="none">
<path d="M914 2639 c-53 -15 -127 -72 -161 -121 -42 -64 -53 -123 -53 -287 l0
-137 -36 -17 c-53 -26 -74 -79 -74 -197 0 -71 4 -104 18 -130 24 -48 75 -80
128 -80 42 0 43 -1 55 -42 21 -79 61 -143 135 -215 l74 -72 0 -55 c0 -93 23
-86 -279 -86 -233 0 -270 -2 -301 -18 -48 -24 -73 -74 -66 -134 5 -47 4 -49
-45 -98 -77 -77 -92 -120 -143 -423 -57 -331 -57 -345 -12 -395 l34 -37 1071
-3 c1184 -3 1110 -6 1152 61 26 40 24 61 -35 399 -50 284 -60 311 -137 393
-47 50 -49 54 -49 109 0 32 -7 70 -16 87 -28 55 -55 59 -354 59 l-270 0 0 78
0 78 50 37 c28 21 60 53 73 72 23 37 30 40 109 50 61 8 78 31 78 105 0 50 3
56 29 72 53 29 63 65 59 203 -3 122 -4 124 -33 155 -16 17 -39 33 -52 36 -19
5 -22 14 -25 57 -3 50 -4 52 -33 52 l-30 0 -3 -82 c-2 -57 -7 -83 -15 -83 -7
0 -22 -3 -34 -6 l-23 -6 0 134 c0 124 -2 138 -22 168 -41 60 -69 73 -161 78
-86 4 -110 -2 -197 -53 -38 -22 -68 -18 -123 17 -44 28 -60 32 -136 36 -75 3
-92 0 -131 -20 -71 -37 -84 -69 -88 -226 -4 -131 -5 -134 -26 -128 -11 3 -24
6 -28 6 -5 0 -8 84 -8 188 0 212 8 242 73 299 59 52 81 55 444 51 l331 -3 44
-30 c53 -38 87 -97 95 -165 7 -57 28 -78 58 -56 15 11 17 23 13 73 -10 103
-70 187 -167 235 -45 22 -54 23 -386 25 -188 1 -354 -2 -371 -8z m251 -346
c29 -19 56 -28 97 -31 50 -4 64 0 112 27 49 27 65 31 130 31 58 0 79 -4 97
-19 23 -19 24 -25 27 -187 3 -171 8 -194 43 -194 16 0 18 -11 21 -106 3 -105
-7 -178 -30 -220 -9 -18 -24 -23 -86 -29 -67 -6 -78 -4 -104 15 -26 19 -40 22
-102 18 -67 -3 -75 -6 -101 -36 -40 -45 -40 -93 2 -134 29 -30 33 -31 94 -25
73 7 121 28 130 56 5 17 42 31 82 31 24 0 -3 -28 -69 -71 -215 -139 -514 -57
-622 171 -29 61 -31 74 -34 198 l-4 132 26 0 c15 0 30 8 36 19 6 11 10 87 10
174 0 141 2 157 21 181 19 24 26 26 102 26 73 0 87 -3 122 -27z m-441 -325 c6
-4 21 -8 34 -8 21 0 22 -3 22 -104 0 -61 -4 -107 -10 -111 -15 -9 -68 4 -85
22 -19 19 -22 212 -3 231 9 9 14 8 22 -5 5 -10 14 -21 20 -25z m1146 23 c5
-11 10 -60 10 -109 0 -105 -13 -129 -72 -139 l-38 -6 0 110 0 111 31 6 c19 4
33 13 36 26 7 25 19 26 33 1z m-80 -361 c0 -35 -3 -40 -24 -40 -22 0 -23 2
-13 40 6 22 17 40 24 40 8 0 13 -14 13 -40z m-365 -125 c0 -16 -9 -21 -48 -26
-48 -5 -72 6 -59 28 8 12 45 21 82 19 18 -1 25 -7 25 -21z m-294 -211 c58 -22
216 -22 284 -1 27 9 50 15 51 14 1 -1 4 -26 6 -54 l5 -53 -203 0 -204 0 0 55
c0 30 4 55 9 55 5 0 28 -7 52 -16z m978 -188 c8 -10 6 -94 -9 -332 -11 -175
-22 -352 -26 -391 l-6 -73 -675 -2 c-618 -3 -677 -4 -686 -20 -8 -12 -7 -21 2
-32 12 -14 89 -16 740 -16 399 0 732 -4 739 -9 8 -4 12 -19 10 -32 l-3 -24
-922 -3 -922 -2 -6 20 c-13 41 9 49 133 52 l117 3 0 30 c0 29 -1 30 -60 35
l-60 5 -24 387 c-19 312 -21 391 -11 403 11 13 114 15 835 15 681 0 824 -2
834 -14z m136 -295 c9 -20 38 -162 64 -316 44 -250 48 -282 35 -303 -8 -12
-24 -22 -38 -22 -20 0 -24 6 -29 43 -7 52 -52 97 -97 97 -29 0 -30 2 -30 43 0
23 7 141 15 262 8 121 15 236 15 255 l1 35 24 -29 c13 -16 31 -46 40 -65z
m-1866 -161 c7 -118 15 -243 18 -277 l6 -63 -27 0 c-60 0 -105 -45 -106 -102
0 -36 -2 -38 -30 -38 -56 0 -56 18 -5 316 50 296 54 311 92 368 19 29 27 36
33 25 4 -8 12 -111 19 -229z"/>
<path d="M1161 1044 c-94 -34 -167 -99 -212 -189 -20 -42 -24 -65 -24 -145 0
-88 3 -101 33 -162 38 -77 91 -128 172 -166 46 -22 70 -26 140 -27 73 0 94 4
145 28 78 37 147 104 181 181 24 52 28 74 28 146 0 73 -4 93 -29 144 -36 76
-100 140 -173 174 -72 33 -193 41 -261 16z m238 -89 c90 -45 141 -124 149
-226 8 -120 -50 -224 -153 -274 -45 -21 -135 -31 -190 -21 -31 6 -35 9 -24 22
21 26 62 42 124 49 80 9 123 23 134 44 5 9 17 57 25 106 14 79 14 91 1 112
-25 38 -61 30 -121 -27 -29 -27 -58 -50 -63 -50 -22 0 -9 25 39 76 54 57 61
83 30 114 -24 24 -35 24 -136 5 -103 -20 -114 -31 -130 -141 -12 -83 -34 -132
-62 -142 -33 -11 -36 153 -3 220 24 50 81 112 123 134 76 39 179 39 257 -1z
m-161 -162 c-55 -59 -61 -96 -22 -142 37 -44 89 -43 140 2 l37 32 -6 -34 c-4
-18 -7 -39 -7 -46 0 -8 -29 -17 -82 -25 -89 -13 -128 -28 -170 -68 -27 -25
-28 -25 -48 -7 l-20 19 29 30 c40 41 59 89 67 170 7 72 11 76 64 87 19 4 37 7
39 8 3 0 -7 -11 -21 -26z"/>
</g>
</svg>
