<?xml version="1.0" standalone="no"?>
<!DOCTYPE svg PUBLIC "-//W3C//DTD SVG 20010904//EN"
 "http://www.w3.org/TR/2001/REC-SVG-20010904/DTD/svg10.dtd">
<svg version="1.0" xmlns="http://www.w3.org/2000/svg"
 width="276.000000pt" height="280.000000pt" viewBox="0 0 276.000000 280.000000"
 preserveAspectRatio="xMidYMid meet">

<g transform="translate(0.000000,280.000000) scale(0.100000,-0.100000)"
fill="#000000" stroke="none">
<path d="M1015 2558 c-77 -22 -146 -45 -152 -50 -9 -7 -13 -48 -13 -139 l0
-129 -31 0 c-36 0 -89 -47 -89 -80 0 -12 13 -35 29 -51 41 -41 101 -41 142 0
l29 29 0 156 0 155 73 21 c39 12 84 25 100 30 l27 9 0 -95 0 -94 -31 0 c-36 0
-89 -47 -89 -80 0 -12 13 -35 29 -51 41 -41 101 -41 142 0 l29 29 0 179 c0
183 -4 204 -39 202 -9 0 -79 -19 -156 -41z"/>
<path d="M1596 2577 c-20 -20 -24 -36 -29 -133 -6 -133 -39 -251 -103 -375
-61 -117 -118 -190 -263 -334 l-121 -119 -48 47 c-53 52 -70 57 -97 27 l-18
-20 -27 25 c-33 31 -41 31 -70 0 l-24 -25 29 -30 29 -30 -27 -27 -27 -27 -30
29 -30 29 -27 -27 -27 -27 29 -30 29 -30 -27 -27 -27 -27 -30 29 -30 29 -25
-24 c-31 -29 -31 -37 0 -70 l25 -27 -20 -18 c-30 -27 -25 -44 27 -97 l48 -48
-170 -170 -170 -170 -50 0 c-57 0 -88 -17 -110 -60 -34 -65 -17 -106 87 -207
85 -82 123 -96 181 -68 45 21 71 69 65 123 -3 40 -1 45 54 99 l58 57 122 -121
c138 -136 171 -155 268 -157 101 -1 132 15 247 127 l103 100 0 -206 0 -207
-28 0 c-15 0 -33 -5 -40 -12 -16 -16 -16 -200 0 -216 17 -17 1319 -17 1336 0
8 8 12 47 12 108 0 105 -7 120 -52 120 l-28 0 0 240 0 240 28 0 c15 0 33 5 40
12 16 16 16 200 0 216 -8 8 -56 12 -148 12 l-136 0 -69 140 c-68 137 -69 142
-54 168 9 15 53 87 97 161 57 92 82 143 82 165 0 64 -63 126 -128 126 -52 0
-93 -39 -142 -133 -25 -48 -47 -87 -50 -87 -3 0 -24 38 -47 83 -58 112 -80
132 -149 132 -47 0 -58 -4 -85 -31 -23 -23 -33 -44 -36 -75 -4 -41 1 -53 78
-179 45 -74 89 -147 98 -162 15 -26 14 -31 -54 -168 l-69 -140 -73 0 -73 0 29
41 c52 71 62 178 25 268 -8 19 -68 89 -134 156 l-120 121 32 31 c138 129 398
234 587 235 79 0 86 2 113 28 16 17 28 39 28 54 0 107 -167 334 -343 467 -149
112 -252 145 -301 96z m123 -77 c148 -67 375 -299 427 -437 9 -24 14 -46 11
-50 -12 -11 -81 16 -142 56 -161 106 -365 346 -365 431 0 25 13 25 69 0z m61
-333 c47 -49 107 -105 133 -124 26 -19 46 -37 44 -39 -2 -2 -43 -15 -93 -29
-127 -36 -275 -113 -376 -194 -84 -67 -87 -69 -132 -64 l-46 6 60 69 c118 136
190 262 235 413 15 50 29 97 32 105 3 11 12 6 31 -20 15 -19 65 -75 112 -123z
m135 -413 c13 -5 345 -649 345 -669 0 -3 -6 -5 -14 -5 -14 0 -383 593 -394
632 -3 14 1 26 13 34 21 16 27 17 50 8z m403 -6 c21 -21 14 -40 -65 -171 -70
-114 -79 -126 -91 -110 -28 38 -24 60 28 164 29 57 57 110 62 117 13 15 50 16
66 0z m-920 -127 c20 -10 87 -70 147 -132 109 -112 135 -154 135 -215 0 -45
-24 -96 -66 -143 -45 -50 -47 -51 -101 -51 l-56 0 52 54 c106 113 98 187 -36
318 -101 100 -153 116 -236 75 l-46 -24 -26 27 -25 26 33 31 c17 18 43 36 57
42 42 17 127 13 168 -8z m-264 -170 c128 -129 157 -162 154 -182 -2 -18 -10
-25 -32 -27 -25 -3 -46 15 -182 151 -85 85 -154 158 -154 162 0 10 41 55 49
55 4 0 77 -71 165 -159z m42 -299 c-4 -12 -16 -24 -28 -28 -17 -5 -49 22 -184
157 l-164 163 27 28 27 29 164 -164 c136 -136 163 -168 158 -185z m247 230
c104 -103 104 -111 -5 -218 -46 -45 -91 -84 -101 -87 -9 -4 -21 -17 -26 -29
-5 -13 -61 -74 -123 -135 -91 -89 -121 -113 -143 -113 -21 0 -46 19 -106 77
-43 42 -81 85 -85 95 -3 11 0 33 7 49 l12 30 59 -58 c57 -57 60 -58 114 -58
50 0 59 3 85 33 16 18 29 40 29 50 1 10 18 25 43 37 31 15 47 31 62 63 12 26
26 42 37 42 10 0 32 13 50 29 30 26 33 35 33 85 0 54 -1 57 -58 114 -57 58
-58 59 -35 70 39 19 70 3 151 -76z m-514 -156 c134 -135 152 -157 149 -182 -2
-22 -9 -30 -28 -32 -21 -2 -54 26 -185 157 l-159 160 24 26 c13 14 29 25 35
25 6 0 80 -69 164 -154z m1131 12 c0 -18 -93 -158 -106 -158 -8 0 -14 2 -14 5
0 3 21 47 47 99 41 83 48 92 60 78 7 -9 13 -20 13 -24z m-1352 -245 l-112
-113 -28 27 -28 27 112 113 112 113 28 -27 28 -27 -112 -113z m1430 122 l22
-35 -50 0 -50 0 22 35 c13 19 25 35 28 35 3 0 15 -16 28 -35z m452 -155 l0
-40 -600 0 -600 0 0 40 0 40 600 0 600 0 0 -40z m-1717 -138 c70 -72 120 -102
171 -102 57 0 85 17 178 107 75 73 88 83 88 63 0 -13 7 -31 15 -40 14 -15 6
-25 -84 -113 -77 -74 -108 -98 -142 -107 -93 -25 -144 0 -284 140 l-109 110
34 35 33 35 20 -33 c10 -17 47 -60 80 -95z m-363 23 l24 -26 -27 -27 -27 -27
-27 27 -27 27 24 26 c13 14 26 25 30 25 4 0 17 -11 30 -25z m1140 -9 c0 -13
-163 -463 -171 -470 -5 -6 -9 87 -9 232 l0 242 90 0 c50 0 90 -2 90 -4z m550
-1 c0 -10 -205 -415 -210 -415 -5 0 -210 405 -210 415 0 3 95 5 210 5 116 0
210 -2 210 -5z m310 -237 c0 -145 -4 -238 -9 -232 -8 7 -171 457 -171 470 0 2
41 4 90 4 l90 0 0 -242z m-2113 140 c63 -62 75 -92 51 -116 -21 -21 -38 -13
-100 45 -69 66 -82 86 -73 113 13 39 55 25 122 -42z m1423 -168 c55 -110 100
-202 100 -205 0 -3 -79 -5 -176 -5 -137 0 -175 3 -172 13 3 6 35 99 73 205 37
105 70 192 71 192 2 0 49 -90 104 -200z m519 -4 c39 -109 71 -200 71 -202 0
-2 -79 -4 -175 -4 -96 0 -175 2 -175 5 0 11 201 407 205 403 2 -2 35 -93 74
-202z m251 -326 l0 -40 -600 0 -600 0 0 40 0 40 600 0 600 0 0 -40z"/>
<path d="M455 2078 c-77 -22 -146 -45 -152 -50 -9 -7 -13 -48 -13 -139 l0
-129 -31 0 c-36 0 -89 -47 -89 -80 0 -12 13 -35 29 -51 41 -41 101 -41 142 0
l29 29 0 156 0 155 73 21 c39 12 84 25 100 30 l27 9 0 -95 0 -94 -31 0 c-36 0
-89 -47 -89 -80 0 -12 13 -35 29 -51 41 -41 101 -41 142 0 l29 29 0 179 c0
183 -4 204 -39 202 -9 0 -79 -19 -156 -41z"/>
</g>
</svg>
